<?xml version="1.0" standalone="no"?>
<!DOCTYPE svg PUBLIC "-//W3C//DTD SVG 20010904//EN"
 "http://www.w3.org/TR/2001/REC-SVG-20010904/DTD/svg10.dtd">
<svg version="1.0" xmlns="http://www.w3.org/2000/svg"
 width="1431.000000pt" height="901.000000pt" viewBox="0 0 1431.000000 901.000000"
 preserveAspectRatio="xMidYMid meet">
<metadata>
Created by potrace 1.13, written by Peter Selinger 2001-2015
</metadata>
<g transform="translate(0.000000,901.000000) scale(0.100000,-0.100000)"
fill="#000000" stroke="none">
<path d="M6935 9000 c-38 -4 -128 -19 -200 -34 -71 -14 -213 -39 -315 -56
-456 -73 -574 -100 -720 -162 -127 -54 -447 -215 -590 -296 -245 -140 -303
-184 -495 -377 -203 -205 -278 -267 -483 -402 -88 -58 -175 -125 -225 -174
-62 -61 -104 -91 -172 -126 -245 -124 -395 -254 -467 -403 -53 -112 -114 -314
-148 -495 l-12 -60 -140 3 c-159 4 -266 -8 -383 -45 -277 -87 -465 -287 -550
-587 -38 -133 -48 -217 -43 -356 4 -106 10 -138 35 -213 54 -154 140 -269 275
-368 40 -29 77 -56 81 -59 4 -4 0 -49 -9 -101 -40 -232 21 -465 161 -609 l53
-55 -39 -190 c-56 -272 -57 -304 -20 -598 38 -296 82 -569 118 -727 54 -244
15 -446 -184 -950 -76 -194 -144 -330 -184 -370 -71 -71 -308 -110 -674 -110
-214 0 -284 -12 -465 -75 -89 -32 -122 -38 -216 -42 -85 -4 -124 -2 -167 11
-54 16 -56 18 -75 69 -27 70 -76 275 -102 422 -25 140 -40 178 -105 263 -47
63 -114 112 -153 112 -38 0 -71 -40 -82 -99 -13 -68 -33 -90 -127 -138 -90
-46 -118 -83 -110 -146 8 -59 81 -199 188 -362 230 -350 350 -460 558 -505
169 -38 288 -22 502 65 l114 47 430 -3 c484 -2 437 -9 613 80 122 62 184 78
328 90 71 6 155 16 185 22 94 20 209 88 339 200 l69 59 5 -43 c7 -55 26 -665
26 -829 l0 -126 58 -4 c31 -2 61 -1 66 3 7 6 -5 519 -23 929 l-8 175 103 98
c110 104 184 205 260 353 40 77 44 91 44 157 0 40 -11 131 -24 202 -37 196
-40 255 -21 378 14 95 108 497 120 517 3 4 57 -18 121 -51 123 -62 275 -116
414 -146 115 -24 437 -25 592 0 368 58 711 193 966 381 34 25 64 46 67 46 3 0
5 -19 5 -42 0 -51 20 -130 44 -177 48 -92 173 -174 286 -188 31 -4 54 -12 57
-20 3 -8 1 -130 -6 -271 -19 -427 -19 -440 12 -505 55 -111 164 -178 303 -185
128 -7 235 32 367 135 l57 45 39 -31 c59 -47 179 -100 267 -118 178 -36 332
37 405 192 16 33 33 84 39 114 19 102 11 433 -16 619 l-6 42 44 0 c54 0 145
23 199 51 55 28 125 93 156 147 29 49 63 160 63 204 0 16 4 28 8 28 5 0 45
-22 90 -49 209 -126 530 -233 822 -275 455 -66 751 -28 1085 139 142 72 264
154 395 269 l85 74 8 -117 c17 -274 51 -427 130 -591 77 -160 92 -233 92 -450
l-1 -175 -51 -175 c-95 -325 -122 -509 -90 -604 35 -101 154 -218 331 -325
l83 -51 7 -137 c4 -76 6 -273 6 -438 l-1 -299 53 -13 c29 -7 56 -12 61 -13 4
0 7 187 7 415 l0 415 50 -25 c28 -14 133 -77 234 -140 377 -234 537 -304 699
-305 69 0 232 -35 327 -70 107 -39 142 -39 214 5 157 94 251 208 297 359 43
140 49 149 153 254 109 111 169 150 306 198 390 135 561 296 480 453 -67 132
-255 182 -444 117 -162 -55 -285 -144 -463 -334 -164 -175 -190 -208 -249
-316 -57 -104 -120 -178 -178 -209 -32 -17 -58 -22 -121 -22 -104 0 -145 22
-285 155 -60 56 -131 113 -165 131 -206 110 -467 295 -514 363 -62 90 -56 123
71 390 232 489 258 585 258 956 0 198 -8 288 -36 395 -21 84 -43 123 -125 217
-107 124 -103 109 -73 295 14 88 27 215 29 286 3 97 7 133 19 146 33 36 76
150 92 241 13 76 15 137 11 310 -3 118 -8 224 -12 235 -5 16 4 26 42 50 64 40
160 139 202 209 136 228 130 538 -19 841 -59 121 -126 206 -217 273 -146 110
-297 160 -505 169 l-137 6 -10 31 c-88 283 -189 583 -211 627 -43 85 -136 194
-214 253 -39 29 -140 99 -224 156 -114 77 -200 147 -330 268 -420 389 -659
576 -803 628 -24 9 -235 82 -469 164 -509 177 -586 205 -710 258 -113 47 -182
65 -355 91 -383 59 -961 87 -1210 61z m490 -90 c385 -17 738 -57 910 -104 28
-7 124 -43 215 -79 91 -36 329 -122 530 -192 601 -208 613 -213 703 -272 97
-65 233 -173 366 -291 192 -170 401 -367 401 -378 0 -6 -50 -117 -111 -245
-61 -129 -133 -286 -159 -349 -130 -317 -164 -391 -180 -384 -76 33 -275 100
-396 134 -593 163 -1436 250 -2301 238 l-301 -4 -8 56 c-4 30 -8 282 -9 560
-2 440 -5 533 -24 720 -24 238 -59 533 -66 567 -5 23 -4 24 160 31 22 1 144
-3 270 -8z m-495 -13 c0 -2 7 -50 14 -108 16 -108 48 -406 67 -614 6 -67 12
-358 13 -657 l1 -538 -80 0 c-114 0 -438 -18 -655 -36 -900 -74 -1605 -237
-2098 -485 l-133 -67 -18 37 c-65 126 -117 412 -141 761 l-10 154 77 79 c51
52 126 110 219 172 221 146 407 303 539 456 84 97 163 158 355 273 165 99 572
306 700 355 105 41 216 65 635 136 182 31 357 62 390 69 57 13 125 20 125 13z
m3884 -1483 c205 -139 289 -218 343 -321 28 -52 213 -601 213 -631 0 -6 -12
-14 -27 -18 -72 -16 -180 -46 -191 -53 -11 -6 -6 -23 21 -77 54 -108 240 -516
296 -652 104 -248 130 -366 138 -624 5 -156 4 -168 -12 -175 -25 -9 -212 12
-229 26 -7 6 -16 37 -20 68 -4 31 -18 107 -31 168 -144 638 -545 1172 -1077
1431 -32 16 -58 32 -58 36 0 15 190 460 262 613 39 83 91 194 116 248 25 54
50 96 56 94 7 -3 96 -62 200 -133z m-6984 -122 c0 -10 5 -79 10 -153 23 -303
77 -591 134 -715 14 -31 26 -60 26 -64 0 -5 -35 -33 -77 -63 -383 -269 -656
-690 -783 -1209 -16 -64 -34 -160 -41 -212 -15 -111 -2 -103 -186 -113 -101
-5 -113 -4 -113 11 0 54 139 613 181 730 51 141 187 383 386 689 46 70 83 132
83 136 0 9 -120 46 -193 60 -26 5 -50 10 -52 13 -7 7 45 234 81 348 68 217
139 318 305 431 62 42 218 129 232 129 4 0 7 -8 7 -18z m4555 -426 c825 -71
1382 -192 1797 -390 512 -245 890 -735 1033 -1341 51 -218 60 -303 60 -585 0
-365 -23 -483 -134 -683 -106 -190 -318 -433 -500 -571 -214 -164 -466 -274
-711 -311 -302 -46 -774 19 -1116 154 -186 73 -397 196 -410 239 -3 9 -21 50
-40 89 -65 136 -218 259 -421 339 -87 35 -93 39 -93 66 0 72 -87 170 -195 219
-117 53 -198 70 -355 76 -292 11 -515 -64 -615 -205 -26 -38 -30 -52 -29 -107
l0 -63 -75 -33 c-170 -75 -339 -213 -410 -335 -46 -78 -80 -115 -176 -186
-337 -253 -786 -398 -1235 -401 -179 -1 -279 13 -425 59 -376 120 -730 401
-974 774 -162 245 -196 383 -196 780 0 176 5 268 19 365 40 282 138 586 255
795 176 315 439 575 751 743 532 287 1463 478 2560 527 321 14 1417 5 1635
-14z m3394 -556 c151 -36 289 -124 373 -237 125 -169 196 -463 159 -655 -35
-178 -169 -335 -356 -417 -44 -20 -206 -64 -210 -58 -1 1 -7 74 -14 162 -6 88
-14 174 -17 190 -4 28 -1 32 44 53 65 31 137 94 168 147 33 57 42 138 21 199
-44 129 -145 199 -285 200 -42 0 -93 -3 -113 -7 l-35 -7 -97 212 c-72 157 -94
214 -85 219 7 5 38 11 68 14 30 3 64 8 75 10 45 8 226 -7 304 -25z m-8623 -30
c115 -20 112 -4 23 -147 -44 -69 -108 -176 -144 -238 l-65 -112 -58 9 c-116
19 -229 -8 -282 -68 -40 -46 -64 -132 -56 -197 12 -90 78 -191 164 -251 l38
-26 -50 -218 c-27 -119 -51 -219 -52 -221 -6 -8 -116 35 -198 78 -264 137
-396 390 -357 683 17 130 47 233 98 337 83 173 249 307 439 355 139 36 348 42
500 16z m8870 -1517 c10 -98 -1 -338 -20 -419 -10 -40 -31 -96 -49 -125 -59
-98 -176 -134 -429 -132 -188 2 -192 3 -184 57 24 146 29 225 30 422 l0 221
40 -8 c94 -18 304 -5 481 31 133 26 122 30 131 -47z m-9157 -88 l204 0 -6
-120 c-6 -139 7 -375 26 -489 l14 -79 -96 6 c-299 19 -472 146 -536 392 -15
59 -21 257 -9 290 6 14 18 15 103 8 53 -4 188 -8 300 -8z m9036 -697 c-11
-116 -25 -222 -44 -330 -24 -143 -12 -175 123 -326 31 -35 63 -79 71 -98 62
-150 73 -605 19 -824 -22 -88 -79 -229 -175 -434 -145 -306 -152 -325 -157
-403 -6 -92 18 -144 102 -228 82 -82 335 -254 483 -328 28 -15 101 -73 162
-130 64 -60 138 -119 173 -138 61 -33 67 -34 173 -34 107 0 112 1 175 36 78
43 134 108 208 242 29 53 85 132 126 178 87 99 224 235 229 228 6 -7 77 -223
77 -234 0 -6 -23 -23 -52 -40 -72 -43 -263 -231 -284 -280 -9 -22 -32 -89 -51
-150 l-35 -110 -92 -90 c-50 -51 -112 -101 -137 -113 l-47 -23 -68 26 c-106
40 -209 63 -334 75 -63 6 -146 20 -185 32 -97 28 -264 115 -497 260 -109 68
-260 156 -335 195 -192 101 -286 165 -375 253 -96 95 -105 122 -88 259 13 102
48 254 105 451 45 156 58 284 45 440 -13 154 -39 252 -105 390 -78 164 -107
312 -121 611 l-7 145 71 90 c90 114 168 239 216 346 l38 84 77 -9 c116 -13
344 -2 421 21 104 31 102 32 95 -40z m-9106 -43 c94 -28 284 -49 313 -34 15 8
20 3 33 -27 8 -20 15 -40 15 -43 0 -19 134 -239 198 -323 93 -124 246 -284
357 -373 48 -38 98 -79 112 -90 l25 -21 -55 -219 c-97 -387 -105 -499 -53
-774 35 -182 34 -201 -15 -291 -103 -190 -157 -251 -410 -473 -303 -266 -339
-284 -609 -307 -151 -12 -184 -22 -353 -102 l-132 -63 -445 0 -445 0 -123 -52
c-68 -29 -161 -61 -208 -70 -80 -17 -89 -17 -186 0 -166 28 -239 71 -355 206
-126 147 -355 515 -365 586 -2 16 12 28 63 55 36 19 79 45 96 58 34 24 73 95
73 130 0 33 14 27 59 -25 60 -71 77 -114 106 -268 43 -231 90 -406 125 -463
26 -41 82 -68 180 -83 112 -17 213 -4 366 46 194 64 263 75 495 75 380 0 591
42 685 136 52 52 143 234 229 458 192 502 223 694 158 981 -53 234 -135 803
-136 940 0 81 14 175 54 364 20 95 24 102 43 97 12 -2 59 -16 105 -31z m5129
-258 c158 -68 276 -166 328 -272 26 -54 29 -69 28 -150 -1 -112 -27 -186 -85
-244 -94 -94 -230 -107 -544 -53 -235 41 -364 52 -505 42 -135 -9 -218 -23
-294 -49 -166 -58 -380 -67 -483 -22 -65 29 -118 86 -134 143 -16 61 -13 160
6 218 45 135 198 271 408 362 l89 39 47 -30 c64 -42 162 -77 267 -97 134 -25
358 -15 479 21 101 30 192 75 227 112 29 31 56 28 166 -20z m-768 -1182 l0
-384 -31 -35 c-68 -78 -226 -156 -315 -156 -86 0 -203 77 -220 145 -7 29 22
691 31 706 4 5 23 9 43 9 41 0 100 14 237 54 74 21 149 35 243 45 9 1 12 -82
12 -384z m457 343 c182 -29 202 -34 207 -52 29 -118 42 -574 19 -651 -35 -114
-120 -185 -224 -185 -99 0 -248 60 -305 123 l-29 32 3 389 3 388 62 -6 c34 -3
153 -20 264 -38z m6494 -1209 c47 -14 104 -61 125 -101 51 -99 -89 -226 -373
-337 -41 -16 -53 -18 -53 -7 0 7 33 25 73 41 127 49 245 116 293 167 37 40 44
54 44 87 0 58 -45 106 -118 127 -88 26 -200 3 -396 -81 -14 -6 -17 -5 -12 4
10 16 120 71 186 92 63 21 175 24 231 8z m-32 -50 c62 -13 111 -58 111 -103 0
-58 -116 -141 -303 -215 -43 -17 -81 -31 -85 -31 -4 0 -12 17 -18 38 l-10 39
96 42 c108 46 143 72 138 104 -3 19 -9 22 -49 20 -27 0 -84 -16 -133 -36 l-87
-34 -14 34 c-8 20 -15 39 -15 43 0 18 187 89 270 103 44 7 48 7 99 -4z"/>
<path d="M8730 6499 c-185 -21 -324 -62 -497 -144 -156 -74 -280 -162 -403
-285 -204 -203 -331 -438 -392 -725 -30 -143 -30 -379 1 -525 86 -408 319
-731 689 -953 267 -160 539 -263 832 -312 128 -22 428 -30 559 -16 630 69
1081 398 1225 892 39 136 50 230 49 429 -2 482 -137 837 -427 1125 -307 304
-732 471 -1305 515 -153 11 -224 11 -331 -1z m380 -134 c282 -45 553 -180 750
-375 510 -502 514 -1295 10 -1800 -188 -188 -410 -309 -679 -371 -129 -30
-374 -37 -516 -14 -293 46 -547 175 -756 384 -155 155 -256 318 -318 510 -45
139 -56 213 -56 386 0 96 6 188 14 230 78 392 339 732 705 917 139 70 306 121
461 141 79 10 299 6 385 -8z m734 -141 c382 -167 639 -436 770 -802 14 -41 38
-131 53 -200 26 -119 27 -143 27 -372 0 -232 -1 -250 -26 -341 -57 -211 -136
-349 -282 -495 -220 -220 -522 -348 -911 -385 -130 -12 -336 -6 -470 15 l-80
13 70 7 c238 25 411 74 594 167 387 197 664 556 756 979 9 41 18 143 21 225 7
169 -7 289 -51 440 -48 169 -181 407 -296 531 -73 80 -190 184 -256 229 -78
53 -60 51 81 -11z"/>
<path d="M9555 5478 c-242 -46 -412 -297 -362 -533 20 -90 37 -129 85 -194 49
-65 124 -122 200 -152 83 -34 242 -34 329 -1 114 44 222 153 267 270 10 26 20
85 23 133 9 142 -35 256 -137 353 -67 64 -139 103 -229 122 -74 15 -104 16
-176 2z m285 -435 c33 -19 50 -51 50 -94 0 -62 -58 -107 -123 -95 -90 17 -112
139 -33 187 38 23 69 24 106 2z"/>
<path d="M5205 6356 c-197 -33 -395 -100 -630 -215 -254 -125 -414 -239 -586
-419 -206 -214 -343 -484 -395 -777 -27 -150 -24 -426 5 -562 107 -506 471
-864 1017 -1001 173 -44 296 -55 513 -49 290 8 519 65 778 192 204 100 315
180 540 392 153 142 236 251 318 418 112 225 151 409 142 665 -6 167 -21 254
-69 395 -118 347 -383 647 -724 818 -95 48 -254 102 -372 128 -125 26 -418 35
-537 15z m350 -116 c347 -33 645 -175 878 -420 233 -244 351 -536 351 -865 0
-162 -13 -250 -59 -391 -63 -194 -154 -342 -303 -496 -344 -354 -840 -493
-1330 -372 -536 132 -936 570 -1002 1098 -15 117 -8 298 14 404 114 528 543
933 1086 1026 159 27 218 29 365 16z m-1279 -402 c-150 -186 -248 -394 -297
-632 -28 -130 -30 -358 -5 -491 109 -589 549 -1028 1166 -1162 68 -14 127 -18
300 -18 125 1 233 6 259 12 69 18 34 -2 -54 -31 -704 -229 -1441 -34 -1784
473 -84 124 -152 297 -177 451 -21 126 -18 355 5 492 59 340 229 627 510 860
52 43 96 78 99 78 3 0 -7 -15 -22 -32z"/>
<path d="M6060 5334 c-217 -58 -361 -282 -329 -510 35 -247 279 -427 522 -386
154 27 273 116 343 256 33 68 38 86 42 174 5 110 -15 188 -69 274 -104 163
-317 243 -509 192z m341 -443 c80 -81 -11 -215 -114 -166 -52 24 -74 79 -53
129 30 71 114 90 167 37z"/>
</g>
</svg>
